<svg width="161" height="51" viewBox="0 0 161 51" fill="none" xmlns="http://www.w3.org/2000/svg">
<path d="M84.0748 14.8311C84.0748 16.3602 82.8591 17.5913 81.3504 17.5913C79.8417 17.5913 78.6269 16.3602 78.6269 14.8311C78.6269 13.3021 79.8003 12.0709 81.3504 12.0709C82.9018 12.1134 84.0748 13.345 84.0748 14.8311ZM72.8441 20.3948V21.0745C72.8441 21.0745 71.5456 19.3749 68.7798 19.3749C64.2127 19.3749 60.6503 22.9 60.6503 27.7836C60.6503 32.6252 64.1709 36.1923 68.7798 36.1923C71.5875 36.1923 72.8441 34.4512 72.8441 34.4512V35.1729C72.8441 35.5127 73.0962 35.7668 73.431 35.7668H76.8248V19.7983H73.431C73.0962 19.7996 72.8441 20.0974 72.8441 20.3948ZM72.8441 30.6291C72.2162 31.5637 70.9587 32.3707 69.4504 32.3707C66.7688 32.3707 64.7151 30.6719 64.7151 27.7836C64.7151 24.8957 66.7688 23.197 69.4504 23.197C70.9173 23.197 72.2581 24.0464 72.8441 24.9382V30.6291ZM79.3394 19.7996H83.3619V35.7681H79.3394V19.7996ZM139.43 19.3745C136.664 19.3745 135.364 21.074 135.364 21.074V12.1134H131.342V35.7681H134.736C135.072 35.7681 135.323 35.4707 135.323 35.1733V34.4516C135.323 34.4516 136.622 36.1928 139.387 36.1928C143.955 36.1928 147.516 32.6265 147.516 27.7849C147.516 22.9433 143.955 19.3745 139.43 19.3745ZM138.759 32.3278C137.208 32.3278 135.993 31.5217 135.364 30.5867V24.8957C135.993 24.0464 137.334 23.1546 138.759 23.1546C141.441 23.1546 143.494 24.8533 143.494 27.7412C143.494 30.6291 141.441 32.3278 138.759 32.3278ZM129.247 26.2979V35.8105H125.224V26.7646C125.224 24.1321 124.386 23.0697 122.124 23.0697C120.91 23.0697 119.652 23.707 118.855 24.6416V35.7685H114.833V19.8H118.017C118.352 19.8 118.603 20.0974 118.603 20.3948V21.0745C119.777 19.8424 121.327 19.3749 122.877 19.3749C124.637 19.3749 126.104 19.8853 127.278 20.9043C128.702 22.0935 129.247 23.6221 129.247 26.2979ZM105.068 19.3745C102.303 19.3745 101.004 21.074 101.004 21.074V12.1134H96.9811V35.7681H100.375C100.71 35.7681 100.962 35.4707 100.962 35.1733V34.4516C100.962 34.4516 102.261 36.1928 105.026 36.1928C109.594 36.1928 113.156 32.6265 113.156 27.7849C113.197 22.9429 109.636 19.3745 105.068 19.3745ZM104.397 32.3278C102.847 32.3278 101.632 31.5217 101.004 30.5867V24.8957C101.632 24.0464 102.973 23.1546 104.397 23.1546C107.08 23.1546 109.133 24.8533 109.133 27.7412C109.133 30.6291 107.08 32.3278 104.397 32.3278ZM93.5028 19.3745C94.7176 19.3745 95.3464 19.5875 95.3464 19.5875V23.3667C95.3464 23.3667 91.9941 22.2199 89.8994 24.6412V35.8101H85.8761V19.7996H89.2706C89.6059 19.7996 89.8567 20.097 89.8567 20.3944V21.074C90.6119 20.1818 92.2461 19.3745 93.5028 19.3745ZM51.7254 34.3239C51.5161 33.8144 51.3064 33.2624 51.0971 32.7949C50.7613 32.0308 50.426 31.3083 50.1334 30.6291L50.0916 30.5867C47.1998 24.2161 44.0995 17.7615 40.8305 11.3917L40.7049 11.1363C40.3611 10.4755 40.0261 9.81009 39.6999 9.14019C39.2804 8.37526 38.8618 7.56918 38.1912 6.80424C36.8503 5.10553 34.9226 4.1709 32.8697 4.1709C30.7741 4.1709 28.8887 5.10554 27.5064 6.71897C26.8777 7.48306 26.4163 8.28999 25.9977 9.05492C25.6707 9.7244 25.3356 10.3898 24.9926 11.051L24.8666 11.3064C21.6399 17.6762 18.4974 24.1312 15.606 30.5014L15.5637 30.5858C15.2707 31.2663 14.935 31.988 14.5997 32.7516C14.3904 33.2192 14.1811 33.7287 13.9717 34.2807C13.4267 35.8517 13.2588 37.3383 13.469 38.8677C13.9299 42.053 16.0246 44.7275 18.9164 45.9175C20.0061 46.3851 21.1376 46.5972 22.3106 46.5972C22.6459 46.5972 23.0645 46.5548 23.4002 46.5119C24.7833 46.3422 26.2079 45.8755 27.591 45.0686C29.309 44.0915 30.9433 42.6906 32.7868 40.6521C34.6304 42.6906 36.3066 44.0915 37.9827 45.0686C39.3662 45.8755 40.7903 46.3422 42.173 46.5119C42.5083 46.5552 42.9278 46.5972 43.2631 46.5972C44.4365 46.5972 45.6095 46.3851 46.6568 45.9175C49.5905 44.7275 51.6434 42.0106 52.1047 38.8677C52.4375 37.3815 52.27 35.8958 51.7254 34.3239ZM32.8274 36.5322C30.5644 33.6443 29.0976 30.9265 28.5952 28.6338C28.3859 27.6568 28.3437 26.8074 28.4697 26.0429C28.553 25.3633 28.805 24.7684 29.1403 24.2589C29.9365 23.113 31.2773 22.3905 32.8279 22.3905C34.3788 22.3905 35.7615 23.0702 36.5159 24.2589C36.8512 24.7684 37.1023 25.3637 37.1869 26.0429C37.3121 26.8078 37.2702 27.6992 37.0609 28.6338C36.5565 30.8841 35.0896 33.6023 32.8274 36.5322ZM49.5461 38.5283C49.2531 40.7365 47.7862 42.6482 45.7334 43.4976C44.7278 43.9218 43.6378 44.0495 42.5489 43.9218C41.5016 43.7941 40.4534 43.4543 39.3645 42.8179C37.8559 41.9677 36.3476 40.6521 34.5873 38.698C37.3527 35.2586 39.0288 32.1153 39.6576 29.3131C39.951 27.9962 39.9933 26.8074 39.8669 25.7027C39.6999 24.6412 39.3223 23.6641 38.7358 22.8148C37.436 20.9031 35.2567 19.7996 32.827 19.7996C30.3974 19.7996 28.2181 20.9463 26.9191 22.8148C26.3326 23.6641 25.955 24.6412 25.7876 25.7027C25.6201 26.8074 25.6616 28.0386 25.9969 29.3131C26.6252 32.1153 28.3432 35.3006 31.0668 38.7404C29.3488 40.6941 27.7982 42.011 26.2895 42.8604C25.1998 43.4976 24.1529 43.8374 23.1055 43.9643C21.9744 44.092 20.8843 43.9218 19.9207 43.54C17.8678 42.6907 16.401 40.779 16.1079 38.5707C15.9824 37.5092 16.0657 36.4477 16.4851 35.2586C16.6103 34.8335 16.8204 34.4092 17.0297 33.8997C17.3232 33.22 17.6577 32.4975 17.9934 31.7759L18.0357 31.6914C20.9266 25.3633 24.0273 18.9082 27.254 12.6233L27.3796 12.3679C27.7153 11.7315 28.0506 11.0519 28.3855 10.4147C28.7208 9.735 29.0976 9.09777 29.5589 8.54539C30.4388 7.52718 31.6118 6.97437 32.9112 6.97437C34.2105 6.97437 35.3835 7.52718 36.2634 8.54539C36.7248 9.09904 37.1015 9.73627 37.4368 10.4147C37.7725 11.0519 38.1079 11.7315 38.4423 12.3679L38.5683 12.6233C41.7458 18.9343 44.8053 25.3057 47.7452 31.7339V31.7763C48.0809 32.4568 48.374 33.2204 48.7093 33.9009C48.9186 34.4096 49.1283 34.8339 49.2539 35.259C49.5884 36.3621 49.714 37.4244 49.5461 38.5283Z" fill="#A3A3A3"/>
</svg>
