<svg width="131" height="45" viewBox="0 0 131 45" fill="none" xmlns="http://www.w3.org/2000/svg">
<g style="mix-blend-mode:luminosity">
<path fill-rule="evenodd" clip-rule="evenodd" d="M37.9438 17.7681V20.3383C37.9438 20.7782 37.958 21.2967 37.9877 21.8937C38.0234 22.7265 38.0497 23.1887 38.0733 23.2797C38.0969 23.3674 38.1799 23.4584 38.3256 23.55C38.4706 23.641 38.7046 23.6882 39.0276 23.6882H39.6198V24.2662C38.894 24.2257 38.1671 24.2048 37.44 24.2034C36.7649 24.2034 35.7958 24.225 34.5339 24.2662V23.6882H35.0701C35.6805 23.6882 36.0393 23.5782 36.1485 23.3608C36.2584 23.1442 36.3117 22.1451 36.3117 20.3631V14.8135C36.3117 13.205 36.2558 12.2905 36.1431 12.0731C36.0305 11.8564 35.7074 11.7464 35.1773 11.7464H34.5346V11.1684C35.4883 11.209 36.3771 11.2312 37.1979 11.2312C38.0268 11.2312 38.8327 11.209 39.6205 11.1684V11.7464H39.2475C38.7086 11.7464 38.3768 11.7936 38.2494 11.8846C38.1219 11.9756 38.0416 12.1268 38.0153 12.337C37.9681 12.6735 37.9445 13.4937 37.9445 14.7946V16.8934C38.975 16.9406 40.2848 16.9654 41.8751 16.9654C43.2226 16.9654 44.3219 16.9406 45.1656 16.8934V15.099C45.1656 14.0496 45.1299 13.1664 45.0618 12.4561C45.0381 12.2047 44.9586 12.0221 44.825 11.9121C44.6949 11.8021 44.4224 11.7458 44.0103 11.7458H43.3851V11.1677C44.2706 11.2083 45.109 11.2306 45.9028 11.2306C46.7586 11.2306 47.6502 11.2083 48.5742 11.1677V11.7458H47.9139C47.4695 11.7458 47.1855 11.7995 47.0608 11.9029C46.936 12.0064 46.8591 12.1982 46.8355 12.4777C46.8092 12.7572 46.7937 13.6371 46.7937 15.114V20.208C46.7937 22.0901 46.847 23.1428 46.9481 23.3595C47.0486 23.5769 47.3656 23.6869 47.8991 23.6869H48.5742V24.2649C47.7505 24.223 46.9258 24.2021 46.101 24.2021C45.1292 24.2021 44.2228 24.2237 43.3845 24.2649V23.6869H43.9827C44.4237 23.6869 44.7057 23.6332 44.8331 23.5265C44.9599 23.4165 45.0408 23.2181 45.0671 22.9235C45.1326 22.2918 45.1649 21.3707 45.1649 20.1615V17.7667C44.3475 17.7196 43.3076 17.6947 42.0403 17.6947C40.2362 17.696 38.8705 17.7209 37.9438 17.7681ZM48.6565 19.0126C48.6565 17.3962 49.1468 16.0941 50.1281 15.1088C51.1093 14.1209 52.4171 13.628 54.0499 13.628C55.6516 13.628 56.9081 14.0856 57.8152 15.0001C58.725 15.918 59.1796 17.1324 59.1796 18.6505C59.1796 20.2846 58.6515 21.6522 57.5967 22.7533C56.5425 23.8518 55.2099 24.4024 53.6061 24.4024C52.6012 24.4024 51.7366 24.1857 51.0089 23.7536C50.2812 23.3209 49.7079 22.6905 49.2857 21.8604C48.8676 21.0309 48.6565 20.081 48.6565 19.0126ZM50.0647 18.407C50.0647 19.518 50.2447 20.4829 50.6022 21.3052C50.9623 22.1275 51.4412 22.7428 52.0428 23.1553C52.645 23.5651 53.3323 23.7687 54.1072 23.7687C54.8227 23.7687 55.4506 23.5952 55.9861 23.2463C56.5243 22.8967 56.9458 22.3762 57.2541 21.6849C57.5623 20.9936 57.716 20.151 57.716 19.1586C57.716 18.1176 57.5454 17.228 57.2068 16.4888C56.8656 15.7497 56.3989 15.1939 55.8067 14.8221C55.2139 14.4476 54.5125 14.2617 53.7045 14.2617C52.9627 14.2617 52.3253 14.4253 51.7878 14.7546C51.2503 15.0839 50.8308 15.5664 50.5246 16.2027C50.2184 16.8378 50.0647 17.5723 50.0647 18.407ZM69.4099 15.3648L67.3482 19.9173C66.574 21.6266 65.9407 23.1173 65.4457 24.3946H65.1685C64.9958 23.9572 64.5048 22.8365 63.6942 21.0283L61.2109 15.571V21.2646C61.2109 22.5897 61.2608 23.3438 61.36 23.5219C61.4598 23.7006 61.7673 23.791 62.2866 23.791H62.5422V24.2538C62.0199 24.2243 61.4968 24.2075 60.9735 24.2034C60.6822 24.2034 60.1015 24.2204 59.2315 24.2538V23.7916H59.6813C59.9875 23.7916 60.1912 23.7438 60.293 23.6509C60.3949 23.5572 60.4569 23.3897 60.4805 23.1428C60.5399 22.4568 60.5702 21.715 60.5702 20.9183V16.75C60.5702 15.7445 60.5486 15.078 60.5088 14.754C60.49 14.5883 60.4212 14.46 60.3025 14.3717C60.1865 14.2839 59.9497 14.2388 59.599 14.2388H59.2315V13.7759C60.0374 13.8086 60.5419 13.8263 60.7503 13.8263C61.016 13.8263 61.3903 13.8086 61.8759 13.7759C62.5001 15.2402 63.1456 16.6959 63.8122 18.1425L65.6392 22.1268L67.3266 18.4365C68.0281 16.8938 68.7035 15.34 69.3526 13.7759C69.9306 13.8086 70.3393 13.8263 70.5747 13.8263C70.8471 13.8263 71.3402 13.8086 72.0537 13.7759V14.2388H71.6005C71.1958 14.2388 70.947 14.314 70.8552 14.4627C70.7642 14.6132 70.7197 15.1514 70.7197 16.0816V21.4643C70.7197 22.6636 70.7669 23.3497 70.862 23.5252C70.9571 23.7032 71.2228 23.7916 71.6592 23.7916H72.0544V24.2545C71.4398 24.2221 70.8246 24.2053 70.2091 24.2041C69.5597 24.2041 68.8812 24.2211 68.1724 24.2545V23.7916H68.6323C68.9972 23.7916 69.2184 23.7059 69.2933 23.5376C69.3722 23.3667 69.4093 22.6401 69.4093 21.353L69.4099 15.3648ZM74.9038 19.2541V21.059L74.9119 22.0973C74.9119 22.7455 74.9187 23.2181 74.9328 23.5199C75.6086 23.573 76.3329 23.6005 77.1065 23.6005C77.6258 23.6005 78.0588 23.5756 78.4122 23.5252C78.6596 23.4911 78.9016 23.4268 79.1325 23.334C79.2485 22.9019 79.3672 22.3638 79.4879 21.715H79.9519C79.8265 22.7887 79.7651 23.5075 79.7651 23.8643L79.7793 24.1962C79.2458 24.2512 78.7231 24.2767 78.2105 24.2767L77.12 24.2538C75.9175 24.2211 75.0333 24.2034 74.4682 24.2034C73.9252 24.2034 73.2049 24.2204 72.308 24.2538V23.7916H72.5224C72.9257 23.7916 73.18 23.7491 73.2839 23.6659C73.3877 23.5834 73.4565 23.387 73.4923 23.078C73.528 22.769 73.5449 22.0849 73.5449 21.0296V16.9877C73.5449 16.3239 73.5307 15.7805 73.5003 15.3582C73.4686 14.936 73.4356 14.6846 73.4026 14.6041C73.3713 14.529 73.3192 14.4637 73.2522 14.4155C73.1861 14.373 72.9871 14.333 72.6553 14.2996L72.1205 14.2394V13.7818H72.8711L73.6062 13.8047C74.0183 13.8198 74.3306 13.8276 74.5444 13.8276L77.2104 13.7897L78.4736 13.7818C78.9045 13.7792 79.3375 13.7969 79.7793 13.842C79.6039 14.4201 79.5041 15.1743 79.4879 16.1019H79.0138C79.0138 15.5612 78.9902 15.114 78.9376 14.7546C78.392 14.5386 77.7216 14.4306 76.9264 14.4306C76.2918 14.4306 75.6275 14.4607 74.9335 14.5183C74.9389 14.9811 74.9335 15.4433 74.9193 15.9036L74.9052 17.0368V18.5327C75.3638 18.5628 75.7678 18.5779 76.1212 18.5779C77.2239 18.5779 77.847 18.5373 77.9914 18.4548C78.1377 18.3743 78.2112 18.1229 78.2112 17.7006V17.2227H78.6826C78.6535 17.8139 78.6369 18.4056 78.6327 18.9975C78.6327 19.4623 78.6496 20.0129 78.6826 20.6466H78.2112V20.2191C78.2112 19.7491 78.1229 19.4597 77.9502 19.3543C77.7776 19.2482 77.1638 19.1959 76.1138 19.1959C75.7246 19.1959 75.3213 19.2162 74.9038 19.2541ZM46.1199 27.3013C46.0771 28.2425 46.0564 29.1846 46.0579 30.1268V35.3831C46.0579 37.2306 46.1112 38.2649 46.215 38.4849C46.3182 38.7075 46.6595 38.8175 47.2402 38.8175H47.8384V39.3968C47.0311 39.3606 46.2232 39.3392 45.4152 39.3327C44.8965 39.3327 43.9726 39.3556 42.6487 39.3968V38.8175H43.4303C43.7952 38.8175 44.0292 38.7716 44.1324 38.6767C44.2363 38.5798 44.301 38.388 44.3307 38.0947C44.3604 37.8034 44.3927 36.9104 44.4258 35.4211V30.5032L44.4022 28.5982C44.39 27.8067 44.3104 27.3235 44.1621 27.1442C44.0137 26.9641 43.6556 26.877 43.081 26.877H42.6487V26.299C43.371 26.3284 44.2895 26.3435 45.4003 26.3435C46.0518 26.3435 46.7775 26.3245 47.578 26.2898C48.1048 26.2643 48.502 26.2525 48.7745 26.2525C50.1753 26.2525 51.1943 26.5222 51.8283 27.063C52.4596 27.6024 52.7765 28.3324 52.7765 29.2535C52.7765 29.9219 52.5931 30.5628 52.2289 31.1828C51.864 31.7975 51.3488 32.2951 50.6797 32.6689C50.0313 33.0381 49.2929 33.2322 48.5411 33.2312C48.1945 33.2312 47.7588 33.171 47.2408 33.0545L47.0662 32.354C47.5753 32.496 47.9989 32.5674 48.3428 32.5674C49.14 32.5674 49.774 32.3101 50.2414 31.7975C50.7121 31.2862 50.9461 30.5851 50.9461 29.6954C50.9461 28.8351 50.6939 28.1648 50.1935 27.6816C49.693 27.2011 48.9492 26.9589 47.9598 26.9589C47.3966 26.9602 46.7836 27.0754 46.1199 27.3013ZM58.1234 34.0679C58.6638 34.8868 59.2258 35.6921 59.8088 36.4829L61.1428 38.318C61.3802 38.6322 61.536 38.8116 61.6142 38.8561C61.6925 38.898 61.7754 38.9216 61.8584 38.9216H62.0384V39.3844C61.7037 39.3531 61.3678 39.3361 61.0315 39.3333C60.7685 39.3333 60.4913 39.351 60.2 39.3844L57.7403 35.8643C57.2784 35.2106 56.7874 34.5767 56.2687 33.9644L56.3395 33.715C56.6073 33.7379 56.8062 33.751 56.9371 33.751C57.7093 33.751 58.3136 33.5402 58.752 33.1167C59.1876 32.6944 59.4082 32.132 59.4082 31.425C59.4082 30.7919 59.2207 30.2957 58.8511 29.9389C58.4815 29.5847 57.946 29.4073 57.2466 29.4073C56.761 29.4073 56.2728 29.5023 55.7825 29.6941C55.7257 30.5274 55.6981 31.3624 55.6995 32.1975V35.7549C55.6995 37.4885 55.74 38.4489 55.8182 38.6381C55.8964 38.826 56.15 38.9222 56.581 38.9222H57.1239V39.3851C56.4877 39.3548 55.8509 39.3377 55.2139 39.334C54.816 39.334 54.0957 39.3517 53.0551 39.3851V38.9222H53.5764C53.9743 38.9222 54.209 38.8286 54.2825 38.6459C54.3581 38.462 54.3938 37.4937 54.3938 35.7399V32.1982C54.3938 30.6767 54.3513 29.825 54.2663 29.6437C54.1807 29.461 53.9015 29.37 53.4294 29.37H53.0551V28.8993C53.915 28.9379 54.5719 28.9582 55.0271 28.9582C55.3326 28.9582 55.771 28.9451 56.3469 28.9196C56.8254 28.9008 57.304 28.8893 57.7828 28.8849C58.584 28.8849 59.1903 28.972 59.6051 29.1533C60.0199 29.332 60.3348 29.5906 60.548 29.9298C60.7638 30.2702 60.8724 30.6741 60.8724 31.1441C60.8796 31.8197 60.6279 32.4737 60.1662 32.9792C59.6968 33.5095 59.0143 33.8715 58.1234 34.0679ZM61.8631 34.1438C61.8631 32.5261 62.3534 31.2247 63.3347 30.2388C64.316 29.2515 65.6237 28.7579 67.2572 28.7579C68.8589 28.7579 70.114 29.2155 71.0218 30.1314C71.9323 31.0479 72.3862 32.263 72.3862 33.7805C72.3862 35.4145 71.8581 36.7828 70.804 37.8839C69.7492 38.9824 68.4172 39.5337 66.8127 39.5337C65.8078 39.5337 64.9432 39.3176 64.2155 38.8856C63.4878 38.4522 62.9145 37.8217 62.493 36.9916C62.0742 36.1615 61.8631 35.2116 61.8631 34.1438ZM63.2706 33.5376C63.2706 34.6486 63.4507 35.6142 63.8088 36.4365C64.169 37.2587 64.6478 37.8734 65.2494 38.2865C65.8517 38.6957 66.5382 38.8993 67.3138 38.8993C68.0294 38.8993 68.6573 38.7265 69.1921 38.3762C69.731 38.0273 70.1525 37.5068 70.4607 36.8162C70.7689 36.1242 70.9234 35.2816 70.9234 34.2898C70.9234 33.2489 70.7521 32.3592 70.4135 31.6201C70.0722 30.881 69.6049 30.3245 69.0134 29.9527C68.4206 29.5782 67.7185 29.3929 66.9112 29.3929C66.1693 29.3929 65.532 29.5566 64.9938 29.8852C64.4556 30.2152 64.0368 30.697 63.7306 31.334C63.4251 31.9684 63.2706 32.7022 63.2706 33.5376ZM75.4548 29.7078C75.4211 30.4609 75.4049 31.2146 75.4063 31.9684V36.1739C75.4063 37.6522 75.4481 38.479 75.5317 38.6558C75.6147 38.8332 75.8871 38.9216 76.3512 38.9216H76.8307V39.3844C76.1847 39.355 75.5383 39.338 74.8917 39.3333C74.4769 39.3333 73.7377 39.351 72.6789 39.3844V38.9216H73.3048C73.5961 38.9216 73.7829 38.8842 73.8659 38.809C73.9488 38.7311 74.0014 38.5772 74.0251 38.3435C74.0487 38.1098 74.075 37.3962 74.0999 36.2041V32.2695L74.0817 30.7455C74.0723 30.1124 74.0082 29.7248 73.8895 29.5821C73.7708 29.4394 73.4848 29.3687 73.0256 29.3687H72.6789V28.9059C73.2569 28.9288 73.992 28.9419 74.8802 28.9419C75.4016 28.9419 75.9829 28.9268 76.6229 28.8987C76.9415 28.8823 77.2603 28.8725 77.5793 28.8692C78.7002 28.8692 79.5156 29.0852 80.0227 29.5173C80.5272 29.9494 80.7815 30.5327 80.7815 31.2692C80.7815 31.8047 80.6338 32.318 80.3431 32.8135C80.048 33.3108 79.6196 33.7212 79.1035 34.0011C78.5848 34.2969 77.994 34.4524 77.3925 34.4515C77.116 34.4515 76.7666 34.4044 76.3518 34.3108L76.2122 33.751C76.6203 33.8636 76.9588 33.9225 77.2347 33.9225C77.872 33.9225 78.3792 33.7157 78.7535 33.3065C79.1305 32.896 79.3173 32.3363 79.3173 31.6253C79.3173 30.936 79.1156 30.4005 78.715 30.0129C78.3144 29.6293 77.7189 29.4348 76.9291 29.4348C76.4766 29.4342 75.9856 29.5278 75.4548 29.7078ZM83.757 34.3841V36.1896L83.7638 37.2279C83.7638 37.8761 83.7705 38.3494 83.7847 38.6512C84.4605 38.7036 85.1848 38.7317 85.9584 38.7317C86.4777 38.7317 86.9107 38.7062 87.2641 38.6564C87.5114 38.6218 87.7534 38.5573 87.9843 38.4646C88.1003 38.0325 88.2191 37.4944 88.3398 36.8456H88.8038C88.6783 37.9199 88.617 38.6381 88.617 38.9949L88.6311 39.3275C88.0976 39.3824 87.575 39.408 87.0624 39.408L85.9732 39.3851C85.0895 39.3572 84.2055 39.3401 83.3214 39.334C82.7785 39.334 82.0582 39.3517 81.1598 39.3851V38.9222H81.3756C81.7776 38.9222 82.0319 38.8803 82.1357 38.7972C82.2396 38.714 82.3084 38.5183 82.3441 38.2093C82.3799 37.9003 82.3967 37.2155 82.3967 36.1595V32.1176C82.3967 31.4538 82.3826 30.9104 82.3522 30.4888C82.3205 30.0666 82.2875 29.8152 82.2544 29.7347C82.2233 29.66 82.1718 29.595 82.1054 29.5468C82.0379 29.5036 81.839 29.4636 81.5072 29.4302L80.9723 29.37V28.9124H81.723L82.4581 28.9353C82.8702 28.9504 83.1824 28.9582 83.3962 28.9582L86.0622 28.9196L87.3254 28.9117C87.7564 28.9091 88.1907 28.9268 88.6311 28.972C88.4558 29.5514 88.356 30.3042 88.3398 31.2325H87.8657C87.8657 30.6918 87.8421 30.244 87.7895 29.8846C87.2452 29.6685 86.5748 29.5599 85.7783 29.5599C85.1437 29.5599 84.4794 29.5906 83.7854 29.6482C83.7908 30.1111 83.7854 30.5739 83.7712 31.0342L83.7577 32.1667V33.6626C84.215 33.6934 84.619 33.7072 84.9724 33.7072C86.0751 33.7072 86.6982 33.6672 86.8425 33.5841C86.9889 33.5036 87.0624 33.2528 87.0624 32.8299V32.3527H87.5338C87.5047 32.9439 87.4881 33.5356 87.4839 34.1275C87.4839 34.5929 87.5008 35.1428 87.5338 35.7772H87.0624V35.3491C87.0624 34.8797 86.9754 34.591 86.8014 34.4849C86.6288 34.3788 86.015 34.3265 84.9649 34.3265C84.5765 34.3265 84.1732 34.3468 83.757 34.3841ZM94.4218 34.0679C94.9619 34.8868 95.5237 35.6921 96.1065 36.4829L97.4412 38.318C97.6786 38.6322 97.8337 38.8116 97.9126 38.8561C97.9902 38.898 98.0731 38.9216 98.1561 38.9216H98.3368V39.3844C98.0019 39.3531 97.6657 39.3361 97.3292 39.3333C97.0655 39.3333 96.789 39.351 96.4983 39.3844L94.038 35.8643C93.5766 35.2103 93.0855 34.5764 92.5664 33.9644L92.6372 33.715C92.9043 33.7379 93.1046 33.751 93.2341 33.751C94.007 33.751 94.6119 33.5402 95.0503 33.1167C95.486 32.6944 95.7066 32.132 95.7066 31.425C95.7066 30.7919 95.5197 30.2957 95.1495 29.9389C94.7792 29.5847 94.2444 29.4073 93.545 29.4073C93.0422 29.4103 92.5448 29.5077 92.0802 29.6941C92.0238 30.5274 91.9961 31.3624 91.9972 32.1975V35.7549C91.9972 37.4885 92.0383 38.4489 92.1159 38.6381C92.1948 38.826 92.4477 38.9222 92.88 38.9222H93.4229V39.3851C92.7867 39.3548 92.1499 39.3378 91.513 39.334C91.1137 39.334 90.3934 39.3517 89.3541 39.3851V38.9222H89.8754C90.2734 38.9222 90.5081 38.8286 90.5816 38.6459C90.6564 38.462 90.6922 37.4937 90.6922 35.7399V32.1982C90.6922 30.6767 90.6504 29.825 90.5647 29.6437C90.4791 29.461 90.1999 29.37 89.7284 29.37H89.3541V28.8993C90.214 28.9379 90.8702 28.9582 91.3248 28.9582C91.6317 28.9582 92.0694 28.9451 92.646 28.9196C93.1244 28.9008 93.6031 28.8892 94.0819 28.8849C94.8831 28.8849 95.4887 28.972 95.9035 29.1533C96.3183 29.332 96.6332 29.5906 96.8463 29.9298C97.0621 30.2702 97.1714 30.6741 97.1714 31.1441C97.1786 31.8197 96.927 32.4737 96.4653 32.9792C95.9945 33.5095 95.312 33.8715 94.4218 34.0679ZM103.187 29.5749C103.135 30.3501 103.111 31.1268 103.112 31.9036V36.1013C103.112 37.6626 103.149 38.5216 103.222 38.6826C103.296 38.841 103.561 38.9216 104.014 38.9216H104.535V39.3844C103.841 39.3537 103.146 39.3366 102.451 39.3333C101.878 39.3333 101.19 39.351 100.384 39.3844V38.9216H100.966C101.271 38.9216 101.472 38.8797 101.564 38.7939C101.656 38.7055 101.713 38.5392 101.737 38.2892C101.784 37.7124 101.805 36.9733 101.805 36.0646V31.8577C101.808 31.0968 101.792 30.3358 101.758 29.5756H101.049C99.9076 29.5756 99.2776 29.6037 99.1617 29.6613C99.0443 29.7163 98.9694 29.9376 98.9337 30.3199L98.8339 31.3085H98.3982L98.4124 30.4312C98.4124 30.077 98.3847 29.5684 98.3294 28.9072C100.827 28.9405 102.297 28.9582 102.737 28.9582L106.576 28.9072C106.489 29.705 106.438 30.5062 106.425 31.3085H105.992L105.923 30.3428C105.894 30.0077 105.855 29.8099 105.805 29.7497C105.752 29.6895 105.642 29.6489 105.463 29.6358C104.886 29.5933 104.308 29.5733 103.729 29.5756L103.187 29.5749ZM106.88 38.9216H107.315C107.748 38.9216 108.005 38.8116 108.09 38.5903C108.175 38.369 108.219 37.3104 108.219 35.4139V32.9183C108.219 30.9556 108.183 29.8715 108.107 29.6705C108.033 29.4695 107.811 29.3687 107.44 29.3687H106.879V28.9059C107.647 28.9392 108.406 28.9569 109.157 28.9569C109.78 28.9569 110.349 28.9392 110.856 28.9059V29.3687H110.323C109.994 29.3687 109.787 29.4106 109.705 29.4937C109.622 29.5769 109.572 29.7877 109.56 30.1281C109.536 30.6538 109.524 31.588 109.524 32.9333V35.4754C109.524 37.3857 109.564 38.4365 109.643 38.6296C109.72 38.8227 109.972 38.9209 110.399 38.9209H110.856V39.3838C110.237 39.3486 109.617 39.3316 108.996 39.3327C108.214 39.3327 107.508 39.3504 106.879 39.3838V38.9216H106.88ZM114.05 34.3841V36.1896L114.058 37.2279C114.058 37.8761 114.064 38.3494 114.079 38.6512C114.754 38.7036 115.479 38.7317 116.252 38.7317C116.77 38.7317 117.205 38.7062 117.558 38.6564C117.805 38.6218 118.047 38.5573 118.278 38.4646C118.394 38.0325 118.513 37.4944 118.634 36.8456H119.098C118.972 37.9199 118.911 38.6381 118.911 38.9949L118.925 39.3275C118.404 39.3811 117.88 39.408 117.356 39.408L116.266 39.3851C115.382 39.3572 114.498 39.3401 113.614 39.334C113.071 39.334 112.351 39.3517 111.454 39.3851V38.9222H111.668C112.072 38.9222 112.326 38.8803 112.43 38.7972C112.534 38.714 112.602 38.5183 112.638 38.2093C112.674 37.9003 112.691 37.2155 112.691 36.1595V32.1176C112.691 31.4538 112.676 30.9104 112.645 30.4888C112.614 30.0666 112.581 29.8152 112.548 29.7347C112.517 29.6596 112.465 29.5945 112.398 29.5468C112.332 29.5036 112.133 29.4636 111.801 29.4302L111.265 29.37V28.9124H112.017L112.751 28.9353C113.163 28.9504 113.476 28.9582 113.69 28.9582L116.356 28.9196L117.619 28.9117C118.05 28.9091 118.483 28.9268 118.925 28.972C118.75 29.5514 118.65 30.3042 118.634 31.2325H118.16C118.16 30.6918 118.136 30.244 118.083 29.8846C117.538 29.6685 116.867 29.5599 116.072 29.5599C115.438 29.5599 114.773 29.5906 114.079 29.6482C114.083 30.1111 114.079 30.5739 114.065 31.0342L114.051 32.1667V33.6626C114.456 33.691 114.861 33.7058 115.267 33.7072C116.37 33.7072 116.993 33.6672 117.137 33.5841C117.284 33.5036 117.357 33.2528 117.357 32.8299V32.3527H117.828C117.799 32.9439 117.783 33.5356 117.779 34.1275C117.779 34.5929 117.795 35.1428 117.828 35.7772H117.357V35.3491C117.357 34.8797 117.269 34.591 117.096 34.4849C116.923 34.3788 116.31 34.3265 115.26 34.3265C114.87 34.3265 114.467 34.3468 114.05 34.3841ZM125.902 29.4001C125.772 29.9101 125.703 30.5864 125.692 31.4309H125.211V30.843C125.211 30.4607 125.164 30.2001 125.066 30.0646C124.97 29.9265 124.716 29.7792 124.306 29.6247C123.894 29.4703 123.455 29.3918 123.013 29.3929C122.271 29.3929 121.69 29.5913 121.266 29.9887C120.842 30.3847 120.631 30.898 120.631 31.5219C120.631 31.9147 120.717 32.2505 120.892 32.532C121.065 32.8175 121.3 33.0204 121.593 33.1461C121.887 33.2692 122.51 33.3798 123.463 33.4734C124.418 33.5703 125.062 33.7026 125.397 33.8623C125.733 34.026 126 34.2852 126.201 34.6446C126.403 35.0014 126.503 35.4257 126.503 35.9193C126.503 36.9039 126.114 37.7543 125.337 38.4653C124.559 39.1775 123.523 39.5343 122.227 39.5343C121.775 39.5333 121.325 39.4852 120.884 39.391C120.416 39.2909 119.96 39.1494 119.519 38.968C119.602 38.3775 119.643 37.6214 119.638 36.6983H120.109V37.0676C120.109 37.5435 120.133 37.8374 120.178 37.95C120.225 38.064 120.335 38.1838 120.505 38.3121C120.762 38.5039 121.062 38.6499 121.415 38.7494C121.766 38.8502 122.147 38.9 122.553 38.9C123.43 38.9 124.105 38.6813 124.582 38.244C125.058 37.8093 125.298 37.2541 125.298 36.5805C125.298 36.1877 125.215 35.8558 125.054 35.5821C124.899 35.3155 124.66 35.1034 124.373 34.9759C124.082 34.843 123.542 34.7422 122.756 34.6715C121.71 34.5844 121 34.4528 120.625 34.2754C120.25 34.0987 119.957 33.8204 119.743 33.4407C119.53 33.0584 119.423 32.5864 119.423 32.0227C119.423 31.0649 119.751 30.2813 120.401 29.6725C121.056 29.0636 121.956 28.7592 123.111 28.7592C123.573 28.7592 124.037 28.8129 124.502 28.9176C124.966 29.0224 125.433 29.1834 125.902 29.4001Z" fill="#A3A3A3"/>
<path fill-rule="evenodd" clip-rule="evenodd" d="M7.74904 38.5798L22.0867 14.4738L36.4237 38.5798H40.2996L22.0874 7.95789L3.87378 38.5798H7.74904ZM24.5302 38.5798L22.0867 34.4718L19.6432 38.5798H24.5302ZM15.6344 38.5798L22.0867 27.7307L28.539 38.5798H32.4149L22.0874 21.2148L11.7592 38.5798H15.6344Z" fill="#737373"/>
</g>
</svg>
