<svg width="93" height="51" viewBox="0 0 93 51" fill="none" xmlns="http://www.w3.org/2000/svg">
<path d="M81.9109 24.1648C84.352 24.1648 86.3303 26.1125 86.3303 28.5155C86.3303 30.9181 84.352 32.8658 81.9109 32.8658C79.4697 32.8658 77.4917 30.9181 77.4917 28.5155C77.4914 26.113 79.4694 24.1648 81.9109 24.1648Z" fill="#525252"/>
<path d="M46.3321 39.6253L38.323 39.625L38.3315 19.9265L46.3312 19.9542L46.3321 39.6253Z" fill="#A3A3A3"/>
<path d="M42.3301 35.6011C44.5149 35.6011 46.2855 37.3796 46.2855 39.5733C46.2855 41.7669 44.5146 43.5454 42.3301 43.5454C40.1456 43.5454 38.3738 41.7669 38.3738 39.5733C38.3738 37.3796 40.1453 35.6011 42.3301 35.6011ZM42.3301 15.8622C44.5149 15.8622 46.2855 17.6407 46.2855 19.8352C46.2855 22.0296 44.5146 23.8078 42.3301 23.8078C40.1456 23.8078 38.3738 22.0291 38.3738 19.8352C38.3738 17.6407 40.1453 15.8622 42.3301 15.8622ZM13.5627 35.699C15.723 35.699 17.4739 37.4547 17.4739 39.6207C17.4739 41.7861 15.7233 43.5421 13.5627 43.5421C11.4023 43.5421 9.65137 41.7861 9.65137 39.6207C9.65137 37.4547 11.4023 35.699 13.5627 35.699ZM13.5799 5.5874C15.7488 5.5874 17.5069 7.36237 17.5069 9.55248C17.5069 11.7423 15.7488 13.5176 13.5799 13.5176C11.4114 13.5176 9.65274 11.7423 9.65274 9.55248C9.65274 7.36237 11.4114 5.5874 13.5799 5.5874Z" fill="#A3A3A3"/>
<path d="M9.56549 9.68909L17.549 9.77287L17.5888 24.3135L24.9792 17.167L30.874 22.6017L25.6738 27.6649L32.9414 37.3525L26.4603 42.003L19.5358 32.8508L17.5194 34.7L17.5191 39.8457L9.56494 39.5388L9.56549 9.68909Z" fill="#A3A3A3"/>
<path d="M27.9434 15.8644C30.1495 15.8644 31.9377 17.6386 31.9377 19.8276C31.9377 22.0163 30.1495 23.7913 27.9434 23.7913C25.7378 23.7913 23.949 22.0163 23.949 19.8276C23.949 17.6388 25.7378 15.8644 27.9434 15.8644ZM29.5574 35.5794C31.7502 35.5794 33.5277 37.3623 33.5277 39.5613C33.5277 41.7596 31.7504 43.5427 29.5574 43.5427C27.3645 43.5427 25.5867 41.7601 25.5867 39.5613C25.5867 37.3623 27.3645 35.5794 29.5574 35.5794ZM55.9262 35.699C58.0866 35.699 59.8372 37.4547 59.8372 39.6207C59.8372 41.7861 58.0866 43.5421 55.9262 43.5421C53.765 43.5421 52.0147 41.7861 52.0147 39.6207C52.0147 37.4547 53.7656 35.699 55.9262 35.699ZM55.9432 5.5874C58.1118 5.5874 59.8701 7.36237 59.8701 9.55248C59.8701 11.7423 58.1124 13.5176 55.9432 13.5176C53.7746 13.5176 52.0163 11.7423 52.0163 9.55248C52.0163 7.36237 53.7746 5.5874 55.9432 5.5874Z" fill="#A3A3A3"/>
<path d="M51.9285 9.68909L59.9121 9.77287L59.9516 24.3135L67.3425 17.167L73.2367 22.6017L68.0371 27.6649L75.3047 37.3525L68.8233 42.003L61.8991 32.8508L59.8827 34.7L59.8825 39.8457L51.928 39.5388L51.9285 9.68909Z" fill="#A3A3A3"/>
<path d="M70.3064 15.8644C72.5125 15.8644 74.3008 17.6385 74.3008 19.8276C74.3008 22.0163 72.5125 23.7913 70.3064 23.7913C68.1008 23.7913 66.312 22.0163 66.312 19.8276C66.3126 17.6388 68.1011 15.8644 70.3064 15.8644ZM71.9208 35.5794C74.1135 35.5794 75.8907 37.3623 75.8907 39.5613C75.8907 41.7596 74.1137 43.5427 71.9208 43.5427C69.7278 43.5427 67.95 41.7601 67.95 39.5613C67.9497 37.3623 69.7278 35.5794 71.9208 35.5794Z" fill="#A3A3A3"/>
</svg>
