<svg width="102" height="41" viewBox="0 0 102 41" fill="none" xmlns="http://www.w3.org/2000/svg">
<path fill-rule="evenodd" clip-rule="evenodd" d="M2.46814 5.8396V28.4247H16.2909V23.9599H7.89336V5.8396H2.46814ZM57.6514 28.4247H62.6864V10.7216H57.6514V28.4247ZM57.6514 9.40259H62.6864V5.72986H57.6514V9.40259ZM73.167 10.2158C70.4541 10.2821 68.2842 11.2056 66.7437 12.9645C65.1388 14.7458 64.3787 17.1647 64.487 20.2215C64.5963 22.9707 65.4422 25.1252 66.9827 26.6652C68.5448 28.1601 70.6069 28.9294 73.2109 28.9739C75.2715 28.9739 77.0516 28.4241 78.5268 27.2801C79.9377 26.1817 80.8489 24.6851 81.2397 22.8164L81.4563 21.8712L76.5092 21.6735L76.2926 22.3764C76.0964 23.0804 75.7716 23.6302 75.3159 24.0702C74.7949 24.4657 74.1871 24.7297 73.4709 24.7514C72.3431 24.7959 71.4747 24.3994 70.7805 23.5205C70.0205 22.597 69.6742 21.3215 69.6742 19.6717C69.6302 17.8687 69.999 16.483 70.6723 15.5595C71.323 14.6795 72.2343 14.24 73.3841 14.284C74.99 14.3063 75.9672 15.1195 76.3146 16.659L76.4228 17.0545L81.2842 16.8785L81.0665 15.8887C80.7417 14.1732 79.8733 12.8097 78.4619 11.7542C77.0077 10.6776 75.2291 10.1718 73.167 10.2158ZM91.374 10.2381C88.6611 10.3483 86.5127 11.3158 84.9292 13.0971C83.2579 14.9446 82.4988 17.2755 82.6939 20.178C82.8022 22.6627 83.5623 24.6857 84.9721 26.2257C86.2961 27.7207 88.1406 28.6007 90.4627 28.8652C91.2217 28.9749 92.0462 28.9749 92.9151 28.9087C94.52 28.7109 95.9528 28.1612 97.2328 27.216C98.4915 26.2708 99.3598 25.1713 99.7935 23.8735L99.9672 23.301L94.9761 22.9272L94.6513 23.4335C94.0005 24.5102 92.9585 24.973 91.5482 24.9067C89.6388 24.797 88.4665 23.741 88.0323 21.6512L87.924 21.058H100.185L100.163 19.7825C100.076 16.7258 99.2081 14.3508 97.5802 12.6353C96.0391 10.9416 93.9346 10.1278 91.374 10.2381ZM94.8019 16.5933L94.9756 17.2533H87.924L88.1192 16.7253C88.3572 15.9338 88.7699 15.296 89.3778 14.8343C89.9846 14.3503 90.7222 14.0868 91.5905 14.0868C92.415 14.0868 93.1097 14.3068 93.7165 14.7903C94.2605 15.2298 94.6293 15.8235 94.8019 16.5933ZM42.7223 5.77386H37.7307V10.7216H35.3872V14.5703H55.7421V10.7216H52.7472V5.77386H47.7562V10.7216H42.7223V5.77386ZM47.7562 16.2635V22.9712C47.7562 25.1702 48.1036 26.6657 48.8411 27.4349C49.5573 28.2487 50.9027 28.6441 52.8126 28.6441L56.0026 28.4247V24.5325H54.5917C53.8981 24.5325 53.42 24.4217 53.1819 24.2022C52.9214 23.9827 52.7692 23.5862 52.7478 23.0364V16.2635H47.7562ZM38.8157 27.4349C39.5318 28.2487 40.8773 28.6441 42.7866 28.6441L45.6512 28.4247V24.5325H44.5663C43.8716 24.5325 43.4159 24.4217 43.1559 24.2022C42.8954 23.9827 42.7652 23.5862 42.7652 23.0364L42.7218 16.2635H37.7302V22.9712C37.7307 25.1702 38.1 26.6657 38.8157 27.4349ZM26.1213 14.0868C27.0979 14.0645 27.8135 14.1965 28.356 14.5703C28.8336 14.9 29.0936 15.296 29.0936 15.824C29.0502 16.264 28.8765 16.5498 28.5511 16.7258C28.1818 16.9241 27.3794 17.0995 26.1207 17.3195L24.9924 17.4955L21.9541 18.1333C20.5438 18.5293 19.4584 19.2333 18.6993 20.2225C17.9398 21.2128 17.6573 22.422 17.7661 23.8073C17.8744 25.3902 18.4822 26.6217 19.6106 27.5897C20.7389 28.5795 22.1058 29.0412 23.7767 29.0412C25.0353 29.0184 26.1856 28.7989 27.1623 28.3589C27.8999 28.0297 28.4643 27.656 28.8765 27.216L29.2239 26.7097L29.5498 28.4252H34.7579L34.5842 27.9852C34.2583 27.1714 34.1066 26.2925 34.1066 25.3902V16.9893C34.15 14.8343 33.6075 13.2068 32.4792 12.1073C31.3723 10.9861 29.6361 10.3918 27.2711 10.2821C24.7104 10.1718 22.7142 10.6118 21.2385 11.5576C19.8716 12.4816 19.0686 13.8445 18.8515 15.56L18.7433 16.3955H23.3435L23.4089 15.9555C23.626 14.8343 24.5373 14.1965 26.1213 14.0868ZM28.5516 23.8502C27.7921 24.7519 26.6637 25.1919 25.1446 25.2354C23.6694 25.2354 22.8664 24.5325 22.7582 23.1907C22.7582 22.5975 22.9318 22.1575 23.3441 21.8718C23.7782 21.5415 24.6027 21.234 25.8613 20.9037L29.2035 20.0243C29.2035 21.322 29.16 22.201 29.1166 22.641C29.0135 23.0795 28.8211 23.4914 28.5516 23.8502ZM92.892 31.9877V34.3621C92.9145 34.6489 93.0228 34.8684 93.2394 35.0661C93.457 35.2421 93.7819 35.3084 94.1946 35.3084C94.9751 35.2867 95.4093 34.9564 95.4532 34.2969V31.9882H94.7371V34.0992C94.7371 34.5164 94.5419 34.6924 94.1946 34.6924C93.7819 34.6924 93.6082 34.4729 93.6082 34.0764V31.9882L92.892 31.9877ZM90.8315 31.8779C90.4188 31.8997 90.0714 32.0094 89.8109 32.2734C89.535 32.5489 89.3657 32.9155 89.3338 33.3066L89.3124 33.5924L89.3338 33.9226C89.4207 34.3181 89.5943 34.6919 89.8548 34.9559C90.1368 35.1981 90.5056 35.3079 90.8958 35.3079L91.2871 35.2861C91.6097 35.1769 91.9004 34.9879 92.133 34.7364C92.3496 34.4724 92.4589 34.1421 92.4804 33.7466V33.4826C92.4589 32.9774 92.3067 32.5591 91.9808 32.2734L91.4823 31.9877L90.8315 31.8779ZM87.2728 31.9877H86.4044V35.1987H87.142V34.0329H87.5322C87.7927 34.0329 87.9235 34.0764 88.0103 34.1426C88.1186 34.2089 88.1401 34.4066 88.184 34.6924L88.2269 35.0227L88.3566 35.1987H89.1167L89.0513 35.1324L88.9431 34.8467L88.8777 34.4284C88.7908 33.9894 88.6611 33.7472 88.466 33.6592H88.4006L88.466 33.6374L88.8348 33.3289L88.9431 32.8237C88.9431 32.6031 88.8777 32.4271 88.7694 32.2739C88.6611 32.1197 88.466 32.0534 88.2484 32.0099L87.2728 31.9877ZM88.1186 32.6689C88.184 32.7134 88.2269 32.8232 88.2484 32.9774C88.2484 33.1089 88.2269 33.2186 88.1401 33.3066C88.0318 33.3729 87.901 33.4164 87.7059 33.4392H87.142V32.5591H87.7059L88.1186 32.6689ZM85.8405 32.8666C85.793 32.6402 85.6794 32.4336 85.5146 32.2734L85.3623 32.1637C85.0888 31.9715 84.7624 31.8715 84.4296 31.8779C83.9525 31.8779 83.5838 32.0094 83.3447 32.2734L83.3018 32.3397C82.9759 32.6689 82.8247 33.0872 82.8247 33.5924C82.8247 34.1421 82.9759 34.5821 83.2364 34.8679C83.4755 35.1753 83.8443 35.3079 84.3214 35.3079L84.8853 35.1753L85.2541 34.8679L85.298 34.8461L85.3194 35.1981H85.8405L85.8619 33.4164H84.4296V33.9889H85.2112L85.1897 34.0758C85.1029 34.3616 84.9292 34.5376 84.6687 34.6484L84.4296 34.6919C84.1691 34.6919 83.9526 34.6256 83.8003 34.4279C83.6706 34.2518 83.5838 33.9661 83.5838 33.5924C83.5838 33.2632 83.6706 32.9774 83.8003 32.7786C83.9526 32.6026 84.1691 32.4929 84.4511 32.4929C84.777 32.4929 84.9935 32.6471 85.1029 32.9774L85.1458 33.0426L85.8619 32.9774L85.8405 32.8666ZM91.7213 33.5489C91.7642 33.8781 91.6988 34.1421 91.5476 34.3181C91.4383 34.5159 91.2657 34.6484 91.0052 34.6919L90.7447 34.6484C90.6407 34.6404 90.5404 34.606 90.453 34.5483C90.3657 34.4905 90.2942 34.4114 90.2451 34.3181C90.1368 34.1421 90.0714 33.9226 90.0714 33.5924C90.0714 33.2632 90.1368 32.9774 90.3105 32.7786C90.4188 32.6026 90.6364 32.4929 90.8958 32.4929C91.1564 32.4929 91.33 32.6026 91.4823 32.7786C91.6559 32.9774 91.7213 33.2186 91.7213 33.5489ZM96.0605 31.9877V35.1987H96.7992V34.0992H97.1455L97.6879 34.0764C97.9485 34.0329 98.165 33.9666 98.3173 33.7689C98.448 33.5929 98.5349 33.3289 98.5563 33.0432C98.5563 32.7139 98.4909 32.4499 98.3173 32.2739H98.2744C98.1007 32.0979 97.7962 31.9882 97.4714 31.9882L96.0605 31.9877ZM97.7319 33.3284C97.6236 33.4392 97.5143 33.4826 97.3406 33.4826H96.7992V32.5591H97.3631C97.4714 32.5591 97.5797 32.6026 97.6879 32.6689L97.8402 32.9774C97.8402 33.1089 97.7962 33.2186 97.7319 33.3284ZM63.8362 31.9877V35.1987H64.5738V34.1872L64.487 33.0432L65.767 35.1987H66.4403V31.9877H65.7241L65.767 32.9329L65.8324 34.2084C65.6894 33.8952 65.5227 33.5938 65.3339 33.3066L64.5309 31.9877H63.8362ZM62.5127 31.9877V33.1969H61.341V31.9877H60.6248V35.1987H61.341V33.8134H62.5127V35.1987H63.2278V31.9877H62.5127ZM54.5917 31.9877V35.1987H56.9792V34.6261H55.3079V33.8134H56.827V33.2192H55.3079V32.5597H56.9353V31.9882L54.5917 31.9877ZM59.8004 32.1637C59.5399 31.9877 59.214 31.8997 58.8452 31.8997C58.412 31.8997 58.0647 32.0094 57.7602 32.2734L57.652 32.3831C57.37 32.7134 57.2178 33.1089 57.2617 33.6586C57.3046 34.1866 57.4354 34.5821 57.7388 34.8461C58.0207 35.1319 58.3895 35.2861 58.8452 35.2861C59.1835 35.3066 59.5192 35.2139 59.8004 35.0221C60.0384 34.8461 60.1906 34.6256 60.256 34.2964L60.2989 34.1421L59.5399 34.0758V34.1866C59.4959 34.3181 59.3876 34.4279 59.2794 34.5376C59.1496 34.6484 58.9974 34.6919 58.8237 34.6919L58.5632 34.6256C58.1944 34.4724 58.0207 34.0986 58.0207 33.5489C58.0647 33.2186 58.129 32.9774 58.2813 32.7786C58.412 32.6026 58.6072 32.4929 58.8452 32.4929C59.1711 32.4929 59.3876 32.6471 59.4959 32.9329L59.5399 32.9992L60.256 32.9774L60.2346 32.8884C60.1924 32.6538 60.0784 32.4386 59.9087 32.2734L59.8004 32.1637ZM67.894 32.7786C67.9692 32.6897 68.0624 32.6182 68.1673 32.5689C68.2722 32.5196 68.3863 32.4937 68.5019 32.4929C68.7624 32.4929 68.935 32.6026 69.0872 32.7786C69.2394 32.9774 69.3048 33.2186 69.3048 33.5489C69.344 33.8154 69.2902 34.0875 69.1526 34.3181C69.0218 34.5159 68.8267 34.6484 68.5887 34.6919L68.3282 34.6484C68.1106 34.6256 67.9594 34.5159 67.8501 34.3181C67.7203 34.1421 67.6335 33.9226 67.6335 33.5924C67.6335 33.2632 67.7203 32.9774 67.894 32.7786ZM67.3944 32.2734C67.135 32.5374 66.9827 32.8666 66.9173 33.3066V33.9226C66.982 34.3178 67.1725 34.6807 67.4598 34.9559C67.7418 35.1981 68.1106 35.3079 68.5019 35.3079L68.8707 35.2861C69.2046 35.1882 69.5049 34.9978 69.738 34.7364C69.9556 34.4724 70.0639 34.1421 70.1068 33.7466V33.4826C70.0639 32.9774 69.8902 32.5591 69.5643 32.2734L69.0443 31.9877L68.4365 31.8779C68.0462 31.8997 67.6774 32.0094 67.4169 32.2734H67.3944ZM54.4835 31.9877H51.836V32.5591H52.7687V35.1987H53.5073V32.5591H54.4829L54.4835 31.9877ZM78.701 31.9877L79.7859 33.9889V35.1981H80.4806V34.0324L81.6085 31.9877H80.8055L80.1547 33.3066L79.504 31.9877H78.701ZM74.0359 31.8779C73.6446 31.8997 73.3197 32.0094 73.0592 32.2734H73.0378C72.7773 32.5374 72.625 32.8666 72.5597 33.3066L72.5168 33.5924L72.5597 33.9226C72.6243 34.3178 72.8149 34.6807 73.1021 34.9559C73.3626 35.1981 73.71 35.3079 74.1442 35.3079L74.513 35.2861C74.8378 35.1753 75.1208 34.9776 75.3803 34.7364C75.5802 34.4414 75.7071 34.1019 75.7501 33.7466V33.4826C75.7062 32.9774 75.5325 32.5591 75.2291 32.2734C75.0682 32.1436 74.884 32.0465 74.6866 31.9877L74.0359 31.8779ZM70.4986 31.9877V35.1987H72.7328V34.6261H71.2147V31.9877H70.4986ZM74.1227 32.4929C74.3607 32.4929 74.5559 32.6026 74.6866 32.7786C74.8818 32.9774 74.9471 33.2186 74.99 33.5489C74.99 33.8781 74.9032 34.1421 74.7735 34.3181C74.6652 34.5159 74.469 34.6484 74.231 34.6919L74.0134 34.6484C73.9043 34.6381 73.7989 34.603 73.705 34.5458C73.6112 34.4887 73.5311 34.4108 73.4709 34.3181C73.3626 34.1421 73.2758 33.9226 73.2758 33.5924C73.2758 33.2632 73.3626 32.9774 73.5363 32.7786C73.688 32.6026 73.8622 32.4929 74.1227 32.4929ZM78.8532 32.8666C78.8058 32.6402 78.6922 32.4336 78.5273 32.2734L78.3751 32.1637C78.1371 31.9877 77.8112 31.8779 77.4424 31.8779C76.9653 31.8779 76.618 32.0094 76.3575 32.2734L76.2931 32.3397C75.9887 32.6689 75.8589 33.0872 75.8589 33.5924C75.8589 34.1421 75.9887 34.5821 76.2492 34.8679C76.5097 35.1753 76.857 35.3079 77.3341 35.3079L77.9195 35.1753L78.2454 34.8679L78.3108 34.8461L78.3537 35.1981H78.8532L78.8961 33.4164H77.4424V33.9889H78.2454L78.2025 34.0758C78.1371 34.3616 77.942 34.5376 77.7029 34.6484L77.4424 34.6919C77.1819 34.6919 76.9653 34.6256 76.8356 34.4279C76.6834 34.2518 76.618 33.9661 76.618 33.5924C76.618 33.2632 76.6834 32.9774 76.8356 32.7786C76.9653 32.6026 77.1819 32.4929 77.4863 32.4929C77.8112 32.4929 78.0288 32.6471 78.1371 32.9774L78.1585 33.0426L78.8961 32.9774L78.8532 32.8666ZM35.2355 31.9877V34.0986C35.2355 34.5159 35.0618 34.6919 34.6925 34.6919C34.3017 34.6919 34.1066 34.4724 34.1066 34.0758V31.9877H33.3905V34.3621C33.4339 34.6489 33.5422 34.8684 33.7592 35.0661C33.9763 35.2421 34.3017 35.3084 34.6925 35.3084C35.4955 35.2867 35.9297 34.9564 35.9511 34.2969L35.9945 31.9882L35.2355 31.9877ZM27.597 31.9877V32.4494L27.4882 32.2734C27.2711 32.0094 26.9237 31.8779 26.3813 31.8779L26.1642 31.8997C25.8383 31.9431 25.5783 32.0094 25.4046 32.2071L25.3178 32.2734C25.209 32.4266 25.1441 32.6026 25.1441 32.8666V32.9992C25.1875 33.2186 25.2963 33.4164 25.4266 33.5489C25.6222 33.6586 25.8608 33.7684 26.2295 33.8564L26.6203 33.9661C26.8808 34.0324 27.0325 34.1421 27.0325 34.3181C27.0342 34.3721 27.0209 34.4255 26.9941 34.4722C26.9673 34.5189 26.928 34.557 26.8808 34.5821L26.4466 34.6919C26.0559 34.6919 25.7954 34.5376 25.7525 34.2084V34.1421L25.0363 34.1866L25.0797 34.3181C25.1017 34.9124 25.5139 35.2416 26.2295 35.3079L26.6203 35.2861C26.9891 35.2416 27.2711 35.1753 27.4882 34.9776C27.6833 34.8016 27.7487 34.5821 27.7921 34.2964C27.7921 33.9889 27.7053 33.7684 27.575 33.6369C27.3794 33.4392 27.1408 33.3284 26.8154 33.2632L26.1861 33.1089C25.969 33.0872 25.8602 32.9774 25.8602 32.8232L25.9036 32.7134C25.9471 32.5591 26.1207 32.4929 26.3813 32.4929C26.772 32.4929 26.9457 32.6471 26.9891 32.8884V32.9774L27.7053 32.9329V32.7786L27.6399 32.5591H28.5731V35.1987H29.2673V32.5591H30.2439V31.9877H27.597ZM30.3527 31.9877V35.1987H31.0689V34.0329H31.4377C31.6982 34.0329 31.8284 34.0764 31.9153 34.1426C32.0241 34.2089 32.0455 34.4066 32.0889 34.6924L32.1543 35.0227L32.306 35.1987H33.0222L32.9568 35.1324L32.848 34.8467L32.7826 34.4284C32.7392 33.9894 32.5869 33.7472 32.3704 33.6592H32.305L32.3704 33.6374C32.5226 33.5929 32.6309 33.5266 32.7397 33.3289C32.848 33.1974 32.8914 32.9997 32.8914 32.8237C32.848 32.6031 32.8046 32.4271 32.6963 32.2739H32.6743C32.5655 32.1197 32.3704 32.0534 32.1533 32.0099L31.1766 31.9882L30.3527 31.9877ZM32.1543 32.9774C32.1543 33.1089 32.1324 33.2186 32.0455 33.3066C31.9801 33.3729 31.8284 33.4164 31.6113 33.4392H31.0689V32.5591H31.6113L32.0455 32.6689C32.1324 32.7134 32.1543 32.8232 32.1543 32.9774ZM38.9893 32.2734L38.8805 32.1637C38.642 31.9877 38.3161 31.8997 37.9473 31.8997C37.4697 31.8997 37.1229 32.0094 36.8624 32.2734L36.7536 32.3831C36.4716 32.7134 36.3194 33.1089 36.3628 33.6586C36.3848 34.1866 36.5365 34.5821 36.8184 34.8461C37.1223 35.1319 37.4697 35.2861 37.9034 35.2861C38.3156 35.3079 38.6415 35.1981 38.88 35.0221C39.1405 34.8461 39.2922 34.6256 39.3576 34.2964L39.401 34.1421L38.6415 34.0758L38.5981 34.1866C38.5549 34.3198 38.4804 34.4402 38.381 34.5376C38.2445 34.6441 38.0755 34.6987 37.9034 34.6919L37.6214 34.6256C37.2955 34.4724 37.1223 34.0986 37.1223 33.5489C37.1443 33.2186 37.2306 32.9774 37.3609 32.7786C37.5131 32.6026 37.6868 32.4929 37.9468 32.4929C38.2722 32.4929 38.4892 32.6471 38.5981 32.9329V32.9992L39.3576 32.9774L39.3142 32.8884C39.2933 32.6471 39.185 32.4494 38.9893 32.2734ZM40.2265 32.5591V35.1987H40.9427V32.5591H41.8973V31.9877H39.2499V32.5591H40.2265ZM48.2118 31.9877V35.1987H50.5988V34.6261H48.95V33.8134H50.4691V33.2192H48.95V32.5597H50.5774V31.9882L48.2118 31.9877ZM45.1521 31.9877V35.1987H45.8683V34.0329H46.2591C46.5196 34.0329 46.6718 34.0764 46.7367 34.1426C46.802 34.2089 46.8889 34.4066 46.9103 34.6924L46.9538 35.0227L47.106 35.1987H47.8655L47.7787 35.1324L47.6704 34.8467L47.605 34.4284C47.5396 33.9894 47.3879 33.7472 47.1708 33.6592H47.1274L47.2143 33.6374C47.3445 33.5929 47.4533 33.5266 47.5616 33.3289C47.6484 33.1974 47.6704 32.9997 47.6704 32.8237C47.6704 32.6031 47.605 32.4271 47.4967 32.2739C47.3445 32.1197 47.1714 32.0534 46.9977 32.0099L45.9776 31.9882L45.1521 31.9877ZM42.0061 31.9877V34.3621C42.0281 34.6489 42.1364 34.8684 42.3535 35.0661C42.5706 35.2421 42.8745 35.3084 43.2648 35.3084C44.0897 35.2867 44.5234 34.9564 44.5668 34.2969V31.9882H43.8506V34.0992C43.8072 34.5164 43.6335 34.6924 43.2648 34.6924C42.896 34.6924 42.7223 34.4729 42.7223 34.0764V31.9882L42.0061 31.9877ZM46.9538 32.9774C46.9538 33.1089 46.9103 33.2186 46.8884 33.3066C46.7796 33.3729 46.6279 33.4164 46.4542 33.4392H45.8683V32.5591H46.4108L46.8449 32.6689C46.9103 32.7134 46.9538 32.8232 46.9538 32.9774ZM8.32754 31.9877V35.1987H10.714V34.6261H9.04316V33.8134H10.5403V33.2192H9.04316V32.5597H10.6706V31.9882L8.32754 31.9877ZM6.98157 31.9877V33.1969H5.83177V31.9877H5.11562V35.1987H5.83177V33.8134H6.98209V35.1987H7.71968V31.9877H6.98157ZM2.31592 31.9877V32.5591H3.29257V35.1987H4.03069V32.5591H5.00734V31.9877H2.31592ZM12.1897 35.1981H12.9273V31.9871H12.1897V35.1981ZM20.3707 31.9877H19.5462V35.1987H20.2624V34.0329H20.6317C20.8702 34.0329 21.0659 34.0764 21.1308 34.1426C21.1956 34.2089 21.239 34.4066 21.2825 34.6924L21.3478 35.0227L21.5001 35.1987H22.867L23.0841 34.5381H24.1041L24.3212 35.1987H25.1028L23.9524 31.9877H23.128L22.1079 35.0227L22.0645 34.8467L21.9557 34.4284C21.9337 33.9894 21.782 33.7472 21.5649 33.6592H21.4996L21.5649 33.6374C21.7166 33.5929 21.8255 33.5266 21.9337 33.3289C22.0425 33.1974 22.064 32.9997 22.064 32.8237C22.0417 32.624 21.9667 32.4341 21.8469 32.2739C21.7386 32.1197 21.5649 32.0534 21.3913 32.0099L20.3707 31.9877ZM16.8334 31.9877V35.1987H17.5495V33.8569H19.0033V33.2637H17.5495V32.5597H19.2203V31.9882L16.8334 31.9877ZM13.6005 31.9877V35.1987H14.3381V34.1872L14.2513 33.0432L15.5319 35.1987H16.2046V31.9877H15.4884L15.5319 32.9329L15.5973 34.2084L15.0982 33.3066L14.2952 31.9877H13.6005ZM23.7992 33.6369L23.908 33.9226H23.2352L23.3441 33.5489L23.5611 32.6689L23.7992 33.6369ZM21.3473 32.9774C21.3473 33.1089 21.3039 33.2186 21.2385 33.3066C21.1737 33.3729 21.0214 33.4164 20.8483 33.4392H20.2619V32.5591H20.8049L21.2385 32.6689C21.3039 32.7134 21.3473 32.8232 21.3473 32.9774Z" fill="#A3A3A3"/>
</svg>
