<svg width="160" height="61" viewBox="0 0 160 61" fill="none" xmlns="http://www.w3.org/2000/svg">
<path fill-rule="evenodd" clip-rule="evenodd" d="M34.5831 13.5702L33.5633 15.5172H31.5237L30.4472 13.5702L31.5237 11.6232H33.5633L34.5831 13.5702ZM31.6937 22.6752L29.6541 26.6265H25.4615L23.422 22.7325L25.4615 18.8385H29.5974L31.6937 22.6752ZM43.2514 25.4812L34.753 9.50439H17.6998L9.14478 25.4812L14.4704 35.4452L16.9066 30.8633L23.1953 30.8068L26.368 36.7051L23.8752 41.3999H34.753L43.2514 25.4812Z" fill="#A3A3A3"/>
<path fill-rule="evenodd" clip-rule="evenodd" d="M99.4536 18.8386L98.3213 18.724C97.4715 18.724 97.0749 19.1821 97.0749 20.0411V21.3582H99.2262V23.4197H97.0749V33.9564H94.4687V23.4197H92.5983V21.3582H94.4687V20.2702C94.4687 18.8386 94.8653 17.8651 95.4878 17.2351C95.941 16.777 96.6791 16.548 97.7548 16.548L99.4544 16.7198L99.4536 18.8386ZM105.629 27.6573C105.629 29.6035 106.139 31.1504 107.158 32.4103C108.122 33.6128 109.651 34.3 111.521 34.3C113.278 34.3 114.807 33.6128 115.883 32.4103C116.904 31.1504 117.357 29.6043 117.357 27.6573C117.357 25.6522 116.904 24.1069 115.883 22.9035C114.807 21.6437 113.278 21.0138 111.521 21.0138C109.651 21.0138 108.122 21.6437 107.158 22.9035C106.139 24.1069 105.629 25.653 105.629 27.6573ZM100.983 16.548H103.589V33.9564H100.983V16.548ZM114.807 27.6573C114.807 28.9171 114.525 29.8906 114.014 30.6915C113.39 31.6658 112.54 32.0667 111.521 32.0667C110.389 32.0667 109.538 31.6658 108.972 30.6915C108.404 29.8898 108.122 28.9171 108.122 27.6573C108.122 26.4539 108.404 25.4232 108.972 24.565C109.539 23.6488 110.389 23.1907 111.521 23.1907C112.54 23.1907 113.39 23.6488 114.014 24.565C114.525 25.424 114.807 26.4539 114.807 27.6573ZM126.252 24.565L124.042 33.9564H121.379L117.867 21.3582H120.529L122.796 30.8068H122.91L125.006 21.3582H127.668L129.764 30.8068L132.2 21.3582H134.807L131.067 33.9564H128.461L126.308 24.565H126.252ZM140.02 18.5522C140.925 18.5522 141.663 18.8386 142.342 19.583C143.021 20.2702 143.306 21.1864 143.306 22.3317C143.306 23.4197 143.022 24.2787 142.342 25.0231C141.663 25.7103 140.925 26.0539 140.02 26.0539C138.999 26.0539 138.263 25.653 137.696 24.9659C137.017 24.2795 136.732 23.306 136.732 22.3317C136.732 21.1864 137.016 20.2702 137.696 19.583C138.32 18.8386 139.113 18.5522 140.02 18.5522ZM137.129 19.0103C136.336 19.8121 135.939 20.9573 135.939 22.3317C135.939 23.5915 136.336 24.6795 137.016 25.5385C137.866 26.3975 138.828 26.7983 140.019 26.7983C141.095 26.7983 142.059 26.4539 142.908 25.5958C143.758 24.736 144.21 23.6488 144.21 22.3317C144.21 20.9573 143.758 19.8121 142.908 19.0103C142.059 18.1514 141.095 17.6933 140.019 17.6933C138.886 17.6933 137.979 18.1514 137.129 19.0103ZM138.432 19.812V24.8513H139.17V22.7325H139.963L141.095 24.8513H141.945L140.642 22.6753C141.492 22.618 141.889 22.1599 141.889 21.3582C141.889 20.3847 141.321 19.812 140.246 19.812H138.432ZM141.095 21.2437C141.095 21.759 140.755 22.0454 140.131 22.0454H139.169V20.5565H140.131C140.755 20.5565 141.095 20.7855 141.095 21.2437ZM54.4692 21.3582H57.0187V33.9564H54.4692V21.3582ZM54.4692 16.548H57.0187V19.1821H54.4692V16.548ZM62.5143 24.565C63.0808 23.6488 63.9307 23.1907 64.9505 23.1907C65.9703 23.1907 66.7634 23.6488 67.33 24.5077C67.8399 25.2522 68.1232 26.2257 68.1232 27.371C68.1232 28.5735 67.8399 29.547 67.33 30.406C66.7634 31.2642 65.9703 31.7803 64.9505 31.7803C63.9307 31.7803 63.1375 31.265 62.5709 30.4633C62.1743 29.7188 61.8911 28.7453 61.8911 27.6C61.8911 26.3975 62.061 25.424 62.5143 24.565ZM59.3416 27.371C59.2283 29.318 59.7382 30.8641 60.588 32.0094C61.4378 33.3265 62.7976 33.9564 64.5539 33.9564C65.2337 33.9564 65.9703 33.7846 66.5935 33.383C67.16 32.9821 67.6133 32.4675 68.0099 31.7795H68.124V33.612C68.124 35.7881 67.0475 36.8761 65.0646 36.8761C64.2714 36.8761 63.7048 36.7608 63.3649 36.5325C62.7983 36.2462 62.4584 35.7873 62.3451 35.0436H59.7382C59.7948 36.418 60.4747 37.3915 61.4945 38.0778C62.4576 38.6513 63.5341 38.9368 64.9505 38.9368C66.7634 38.9368 68.1798 38.4787 69.143 37.5052C70.1628 36.5317 70.6727 35.1574 70.6727 33.3249V21.3582H68.1232V23.0761H68.0091C67.3292 21.7018 66.2535 21.0146 64.5531 21.0146C62.9667 21.0146 61.7203 21.6445 60.7572 22.9043C59.7948 24.1069 59.3416 25.5958 59.3416 27.371ZM75.8283 26.512V33.9564H73.2222V16.548H75.8283V23.0189C76.2249 22.4462 76.6781 21.9308 77.358 21.5873C77.9504 21.2074 78.6387 21.0086 79.3402 21.0146C80.5866 21.0146 81.6072 21.3582 82.4003 22.1026C83.0794 22.7898 83.476 23.9351 83.476 25.2522V33.9564H80.9832V26.0539C80.8691 24.1642 80.1333 23.1907 78.6611 23.1907C77.8112 23.1907 77.1314 23.5342 76.564 24.1642C76.1116 24.7368 75.8283 25.5385 75.8283 26.512ZM84.6107 21.3582H86.5936V17.5787H89.0865V21.3582H91.3519V23.4197H89.0865V30.1197C89.0865 30.8068 89.1431 31.2642 89.2556 31.4368C89.4264 31.7803 89.823 31.8949 90.3895 31.8949L91.3519 31.8376V33.8991L89.7089 34.0709C88.5191 34.0709 87.6693 33.8419 87.1594 33.212C86.7628 32.8111 86.5936 31.9521 86.5936 30.8641V23.4205H84.6107V21.3582ZM49.0303 16.548H51.6364V33.9564H49.0303V16.548Z" fill="#A3A3A3"/>
</svg>
